<?xml version="1.0" encoding="UTF-8" standalone="no"?>
<!-- Created with Inkscape (http://www.inkscape.org/) -->

<svg
   version="1.1"
   id="svg4320"
   width="682.66669"
   height="682.66669"
   viewBox="0 0 682.66669 682.66669"
   xmlns="http://www.w3.org/2000/svg"
   xmlns:svg="http://www.w3.org/2000/svg">
  <defs
     id="defs4324">
    <clipPath
       clipPathUnits="userSpaceOnUse"
       id="clipPath4334">
      <path
         d="M 0,512 H 512 V 0 H 0 Z"
         id="path4332" />
    </clipPath>
  </defs>
  <g
     id="g4326"
     transform="matrix(1.3333333,0,0,-1.3333333,0,682.66667)">
    <g
       id="g4328">
      <g
         id="g4330"
         clip-path="url(#clipPath4334)">
        <g
           id="g4336"
           transform="translate(385.9712,229.5806)">
          <path
             d="M 0,0 -91.799,35.551 -130.109,-6.745 -168.224,35.664 -260.218,0 c 0,0 -34.935,-14.362 -34.935,-54.188 l 0.001,-156.236 c 0,-6.429 5.211,-11.64 11.64,-11.64 H 23.294 c 6.428,0 11.641,5.211 11.641,11.64 V -54.188 C 34.935,-14.362 0,0 0,0"
             style="fill:#e4eaf8;fill-opacity:1;fill-rule:nonzero;stroke:none"
             id="path4338" />
        </g>
        <g
           id="g4340"
           transform="translate(126.2339,19.1567)">
          <path
             d="m 0,0 v 178.444 c 0,16.559 6.042,28.694 13.1,37.244 l -13.58,-5.264 c 0,0 -34.936,-14.362 -34.936,-54.188 L -35.415,0 c 0,-6.429 5.211,-11.641 11.64,-11.641 H 11.641 C 5.212,-11.641 0,-6.429 0,0"
             style="fill:#d8dce5;fill-opacity:1;fill-rule:nonzero;stroke:none"
             id="path4342" />
        </g>
        <g
           id="g4344"
           transform="translate(294.1723,265.1313)">
          <path
             d="m 0,0 -2.656,1.028 v 32.598 c -10.115,-6.978 -22.36,-11.076 -35.55,-11.076 -13.805,0 -25.936,3.79 -35.858,10.131 V 1.028 l -2.361,-0.915 38.114,-42.408 z"
             style="fill:#f0a479;fill-opacity:1;fill-rule:nonzero;stroke:none"
             id="path4346" />
        </g>
        <g
           id="g4348"
           transform="translate(265.8403,288.4619)">
          <path
             d="m 0,0 c -3.218,-0.511 -6.515,-0.78 -9.874,-0.78 -13.805,0 -25.936,3.789 -35.858,10.13 V -22.302 L -48.093,-23.217 -9.979,-65.626 0,-54.61 Z"
             style="fill:#e5966e;fill-opacity:1;fill-rule:nonzero;stroke:none"
             id="path4350" />
        </g>
        <g
           id="g4352"
           transform="translate(289.9448,44.5049)">
          <path
             d="M 0,0 -22.514,146.279 H -45.698 L -68.166,0 c -0.477,-2.74 0.531,-5.546 2.513,-7 l 28.133,-28.828 c 2.112,-1.548 4.763,-1.548 6.875,0 L -2.513,-7 C -0.53,-5.546 0.477,-2.74 0,0"
             style="fill:#f25c5c;fill-opacity:1;fill-rule:nonzero;stroke:none"
             id="path4354" />
        </g>
        <g
           id="g4356"
           transform="translate(247.6587,37.5054)">
          <path
             d="m 0,0 c -1.983,1.453 -2.99,4.259 -2.513,7 l 22.376,145.689 -0.091,0.589 H -3.412 L -25.879,7 c -0.477,-2.741 0.53,-5.547 2.512,-7 L 4.766,-28.828 c 2.112,-1.548 4.763,-1.548 6.876,0 l 8.245,8.449 z"
             style="fill:#e54a4a;fill-opacity:1;fill-rule:nonzero;stroke:none"
             id="path4358" />
        </g>
        <g
           id="g4360"
           transform="translate(279.228,210.3071)">
          <path
             d="M 0,0 -23.366,16.561 -46.732,0 -34.987,-19.689 h 23.243 z"
             style="fill:#e54a4a;fill-opacity:1;fill-rule:nonzero;stroke:none"
             id="path4362" />
        </g>
        <g
           id="g4364"
           transform="translate(261.7446,214.4765)">
          <path
             d="m 0,0 5.801,4.111 -11.684,8.28 -23.366,-16.56 11.745,-19.69 H 5.739 l 0.061,0.103 -7.988,13.394 C -4.274,-6.866 -3.321,-2.354 0,0"
             style="fill:#d83f3f;fill-opacity:1;fill-rule:nonzero;stroke:none"
             id="path4366" />
        </g>
        <g
           id="g4368"
           transform="translate(220.1084,266.1597)">
          <path
             d="M 0,0 -28.69,-11.123 2.557,-56.558 c 2.45,-3.071 7.016,-3.358 9.83,-0.617 l 23.366,17.883 z"
             style="fill:#d8dce5;fill-opacity:1;fill-rule:nonzero;stroke:none"
             id="path4370" />
        </g>
        <g
           id="g4372"
           transform="translate(291.6157,266.1597)">
          <path
             d="M 0,0 28.689,-11.123 -2.558,-56.558 c -2.45,-3.071 -7.015,-3.358 -9.83,-0.617 l -23.366,17.883 z"
             style="fill:#d8dce5;fill-opacity:1;fill-rule:nonzero;stroke:none"
             id="path4374" />
        </g>
        <g
           id="g4376"
           transform="translate(368.2173,392.1294)">
          <path
             d="m 0,0 c 0,-62.052 -50.304,-112.355 -112.355,-112.355 -62.052,0 -112.355,50.303 -112.355,112.355 0,62.052 50.303,112.355 112.355,112.355 C -50.304,112.355 0,62.052 0,0"
             style="fill:#e4eaf8;fill-opacity:1;fill-rule:nonzero;stroke:none"
             id="path4378" />
        </g>
        <g
           id="g4380"
           transform="translate(178.5068,392.1294)">
          <path
             d="m 0,0 c 0,56.099 41.115,102.591 94.855,110.996 -5.703,0.892 -11.547,1.359 -17.5,1.359 C 15.303,112.355 -35,62.052 -35,0 c 0,-62.052 50.303,-112.355 112.355,-112.355 5.953,0 11.797,0.467 17.5,1.359 C 41.115,-102.591 0,-56.099 0,0"
             style="fill:#d8dce5;fill-opacity:1;fill-rule:nonzero;stroke:none"
             id="path4382" />
        </g>
        <g
           id="g4384"
           transform="translate(278.1841,394.6206)">
          <path
             d="m 0,0 c -11.772,-9.204 -11.986,-15.625 -11.986,-26.756 0,-4.066 -2.141,-8.775 -12.629,-8.775 -8.776,0 -11.773,3.21 -11.773,14.34 0,37.76 33.391,35.392 33.391,56.722 0,9.846 -8.562,14.555 -19.264,14.555 -21.832,0 -17.123,-16.482 -28.682,-16.482 -5.779,0 -12.842,3.854 -12.842,12.201 0,11.558 13.27,28.682 42.166,28.682 C 22.802,74.487 43.511,33.842 0,0"
             style="fill:#f25c5c;fill-opacity:1;fill-rule:nonzero;stroke:none"
             id="path4386" />
        </g>
        <g
           id="g4388"
           transform="translate(270.2641,327.8384)">
          <path
             d="m 0,0 c 0,-8.775 -7.277,-16.481 -16.481,-16.481 -9.205,0 -16.268,7.706 -16.268,16.481 0,8.99 7.278,16.482 16.268,16.482 C -7.491,16.482 0,8.99 0,0"
             style="fill:#f25c5c;fill-opacity:1;fill-rule:nonzero;stroke:none"
             id="path4390" />
        </g>
        <g
           id="g4392"
           transform="translate(253.5688,359.0894)">
          <path
             d="M 0,0 C 6.221,0 9.491,1.661 11.134,3.857 9.739,6.089 9.159,9.449 9.159,14.341 c 0,37.759 33.391,35.391 33.391,56.722 0,9.846 -8.562,14.555 -19.264,14.555 -4.539,0 -7.92,-0.72 -10.549,-1.848 5.35,-2.202 8.881,-6.393 8.881,-12.707 0,-21.331 -33.39,-18.963 -33.39,-56.722 C -11.772,3.21 -8.775,0 0,0"
             style="fill:#e54a4a;fill-opacity:1;fill-rule:nonzero;stroke:none"
             id="path4394" />
        </g>
        <g
           id="g4396"
           transform="translate(235.3306,440.4258)">
          <path
             d="m 0,0 c 0,10.065 10.068,24.345 31.748,27.868 -3.328,0.53 -6.838,0.814 -10.514,0.814 -28.895,0 -42.166,-17.124 -42.166,-28.682 0,-8.348 7.064,-12.201 12.843,-12.201 5.021,0 6.973,3.112 9.363,6.63 C 0.477,-4.004 0,-2.155 0,0"
             style="fill:#e54a4a;fill-opacity:1;fill-rule:nonzero;stroke:none"
             id="path4398" />
        </g>
        <g
           id="g4400"
           transform="translate(258.4477,327.8389)">
          <path
             d="m 0,0 c 0,5.021 2.273,9.573 5.845,12.615 -2.868,2.404 -6.542,3.866 -10.51,3.866 -8.989,0 -16.267,-7.491 -16.267,-16.481 0,-8.775 7.063,-16.481 16.267,-16.481 4.019,0 7.671,1.47 10.51,3.856 C 2.241,-9.546 0,-4.943 0,0"
             style="fill:#e54a4a;fill-opacity:1;fill-rule:nonzero;stroke:none"
             id="path4402" />
        </g>
        <g
           id="g4404"
           transform="translate(150.415,128.8677)">
          <path
             d="M 0,0 V -121.352"
             style="fill:none;stroke:#000000;stroke-width:15;stroke-linecap:round;stroke-linejoin:round;stroke-miterlimit:10;stroke-dasharray:none;stroke-opacity:1"
             id="path4406" />
        </g>
        <g
           id="g4408"
           transform="translate(361.5874,128.8677)">
          <path
             d="M 0,0 V -121.352"
             style="fill:none;stroke:#000000;stroke-width:15;stroke-linecap:round;stroke-linejoin:round;stroke-miterlimit:10;stroke-dasharray:none;stroke-opacity:1"
             id="path4410" />
        </g>
        <g
           id="g4412"
           transform="translate(220.2471,266.1597)">
          <path
             d="M 0,0 -28.69,-11.123 2.557,-56.558 c 2.45,-3.071 7.016,-3.358 9.83,-0.617 l 23.366,17.883 z"
             style="fill:none;stroke:#000000;stroke-width:15;stroke-linecap:round;stroke-linejoin:round;stroke-miterlimit:10;stroke-dasharray:none;stroke-opacity:1"
             id="path4414" />
        </g>
        <g
           id="g4416"
           transform="translate(291.7534,266.1597)">
          <path
             d="M 0,0 28.69,-11.123 -2.557,-56.558 c -2.45,-3.071 -7.015,-3.358 -9.83,-0.617 l -23.366,17.883 z"
             style="fill:none;stroke:#000000;stroke-width:15;stroke-linecap:round;stroke-linejoin:round;stroke-miterlimit:10;stroke-dasharray:none;stroke-opacity:1"
             id="path4418" />
        </g>
        <g
           id="g4420"
           transform="translate(279.3667,208.9848)">
          <path
             d="M 0,0 -23.366,17.883 -46.732,0 c 0,0 12.494,-18.367 11.744,-18.367 h 23.243 C -12.495,-18.367 0,0 0,0 Z"
             style="fill:none;stroke:#000000;stroke-width:15;stroke-linecap:round;stroke-linejoin:round;stroke-miterlimit:10;stroke-dasharray:none;stroke-opacity:1"
             id="path4422" />
        </g>
        <g
           id="g4424"
           transform="translate(290.0825,44.5049)">
          <path
             d="M 0,0 -22.461,146.113 H -34.082 -45.704 L -68.165,0 c -0.477,-2.741 0.531,-5.546 2.513,-7 l 28.132,-28.828 c 2.112,-1.548 4.763,-1.548 6.875,0 L -2.513,-7 C -0.53,-5.546 0.478,-2.741 0,0 Z"
             style="fill:none;stroke:#000000;stroke-width:15;stroke-linecap:round;stroke-linejoin:round;stroke-miterlimit:10;stroke-dasharray:none;stroke-opacity:1"
             id="path4426" />
        </g>
        <g
           id="g4428"
           transform="translate(368.3549,392.1294)">
          <path
             d="m 0,0 c 0,-62.052 -50.303,-112.355 -112.354,-112.355 -62.053,0 -112.356,50.303 -112.356,112.355 0,62.052 50.303,112.355 112.356,112.355 C -50.303,112.355 0,62.052 0,0 Z"
             style="fill:none;stroke:#000000;stroke-width:15;stroke-linecap:round;stroke-linejoin:round;stroke-miterlimit:10;stroke-dasharray:none;stroke-opacity:1"
             id="path4430" />
        </g>
        <g
           id="g4432"
           transform="translate(270.4028,327.8384)">
          <path
             d="m 0,0 c 0,-8.775 -7.277,-16.481 -16.481,-16.481 -9.205,0 -16.268,7.706 -16.268,16.481 0,8.99 7.277,16.482 16.268,16.482 C -7.492,16.482 0,8.99 0,0 Z"
             style="fill:none;stroke:#000000;stroke-width:15;stroke-linecap:round;stroke-linejoin:round;stroke-miterlimit:10;stroke-dasharray:none;stroke-opacity:1"
             id="path4434" />
        </g>
        <g
           id="g4436"
           transform="translate(240.9346,467.146)">
          <path
             d="m 0,0 c -17.986,-4.815 -26.397,-17.524 -26.397,-26.72 0,-8.348 7.063,-12.201 12.842,-12.201 11.558,0 6.849,16.482 28.682,16.482 10.703,0 19.264,-4.709 19.264,-14.555 C 34.391,-58.325 1,-55.957 1,-93.716 c 0,-11.13 2.997,-14.341 11.773,-14.341 10.488,0 12.628,4.709 12.628,8.776 0,11.13 0.215,17.552 11.986,26.756 C 73.978,-44.066 65.15,-10.8 35,-0.936"
             style="fill:none;stroke:#000000;stroke-width:15;stroke-linecap:round;stroke-linejoin:round;stroke-miterlimit:10;stroke-dasharray:none;stroke-opacity:1"
             id="path4438" />
        </g>
        <g
           id="g4440"
           transform="translate(421.0444,131.4761)">
          <path
             d="m 0,0 v 43.917 c 0,39.826 -34.936,54.188 -34.936,54.188 l -94.454,36.579 v 19.394 c -0.785,-0.263 -1.573,-0.519 -2.366,-0.765 -0.044,-0.014 -0.088,-0.026 -0.132,-0.04 -0.876,-0.27 -1.756,-0.529 -2.64,-0.778 -0.252,-0.071 -0.507,-0.137 -0.76,-0.206 -0.678,-0.185 -1.357,-0.369 -2.039,-0.542 -0.329,-0.083 -0.661,-0.162 -0.992,-0.242 -0.612,-0.15 -1.223,-0.296 -1.837,-0.436 -0.368,-0.083 -0.739,-0.161 -1.108,-0.241 -0.583,-0.125 -1.167,-0.249 -1.754,-0.366 -0.389,-0.077 -0.781,-0.15 -1.172,-0.224 -0.572,-0.107 -1.144,-0.211 -1.718,-0.31 -0.404,-0.069 -0.808,-0.136 -1.213,-0.2 -0.567,-0.092 -1.137,-0.178 -1.707,-0.261 -0.413,-0.059 -0.826,-0.118 -1.24,-0.173 -0.57,-0.076 -1.14,-0.146 -1.712,-0.212 -0.415,-0.05 -0.83,-0.099 -1.247,-0.144 -0.58,-0.061 -1.162,-0.115 -1.744,-0.167 -0.412,-0.038 -0.823,-0.078 -1.236,-0.11 -0.604,-0.049 -1.211,-0.087 -1.817,-0.125 -0.393,-0.025 -0.783,-0.054 -1.177,-0.075 -0.67,-0.036 -1.344,-0.06 -2.018,-0.084 -0.332,-0.011 -0.662,-0.028 -0.995,-0.037 -1.007,-0.027 -2.016,-0.042 -3.03,-0.042 -1.014,0 -2.023,0.015 -3.03,0.042 -0.333,0.009 -0.664,0.026 -0.996,0.037 -0.674,0.024 -1.347,0.048 -2.018,0.084 -0.392,0.021 -0.783,0.05 -1.175,0.074 -0.607,0.039 -1.214,0.077 -1.818,0.126 -0.413,0.032 -0.823,0.072 -1.235,0.109 -0.582,0.053 -1.165,0.107 -1.746,0.169 -0.416,0.044 -0.83,0.093 -1.245,0.142 -0.573,0.067 -1.144,0.137 -1.713,0.213 -0.415,0.055 -0.827,0.114 -1.239,0.173 -0.571,0.083 -1.14,0.169 -1.709,0.261 -0.405,0.064 -0.808,0.131 -1.212,0.2 -0.574,0.099 -1.147,0.203 -1.718,0.31 -0.391,0.074 -0.783,0.147 -1.172,0.224 -0.587,0.117 -1.172,0.241 -1.756,0.367 -0.368,0.079 -0.737,0.157 -1.105,0.24 -0.616,0.14 -1.229,0.287 -1.841,0.437 -0.33,0.08 -0.66,0.158 -0.988,0.241 -0.684,0.173 -1.365,0.357 -2.045,0.544 -0.251,0.068 -0.504,0.133 -0.755,0.204 -0.889,0.25 -1.774,0.511 -2.655,0.783 -0.038,0.012 -0.077,0.022 -0.115,0.035 -0.827,0.255 -1.649,0.522 -2.468,0.797 v -19.426 l -94.354,-36.579 c 0,0 -34.936,-14.362 -34.936,-54.188 v -156.236 c 0,-6.429 5.212,-11.641 11.641,-11.641 h 306.805 c 6.429,0 11.642,5.212 11.642,11.641 L 0,-35"
             style="fill:none;stroke:#000000;stroke-width:15;stroke-linecap:round;stroke-linejoin:round;stroke-miterlimit:10;stroke-dasharray:none;stroke-opacity:1"
             id="path4442" />
        </g>
      </g>
    </g>
  </g>
</svg>
