<svg id="Layer_1" enable-background="new 0 0 512 512" height="512" viewBox="0 0 512 512" width="512" xmlns="http://www.w3.org/2000/svg"><path clip-rule="evenodd" d="m416.4 431.8c-109.3-119.2-178.9-204.3-218.6-267.7-24.8-39.5-38.3-70.9-41.2-96.7-19.1 34.4-29.6 72.7-30.7 112.6-.4 14.8 11.4 49 70.1 127.8 40.9 54.9 91.9 114.7 129.1 158.4 15.8 18.6 29.1 34.1 38.6 45.8zm-171.5-34.1c-20.5 24.7-40.3 48-57.8 68.5-15.8 18.6-29.1 34.1-38.6 45.8l-52.8-80.2c36.4-39.9 52.7-59.8 81.4-94.7 3.2-3.9 6.6-8 10.1-12.3 17.4 23.2 37 47.7 57.7 72.9zm11.1-305.2c-23.8 0-47.3 7.2-67.1 20.3-15.5-32.9-19.4-57.6-12-76.3 19.8-23.2 48.5-36.5 79.1-36.5s59.3 13.3 79.1 36.5c4.4 11.8 2.8 33.5-16.9 73.2-18.8-11.3-40.2-17.2-62.2-17.2zm7.6 134.9c35.3-48.1 60.6-88.7 75.1-120.7 7.5-16.5 12.3-30.9 14.4-43.5 20.6 35.4 32 75.3 33.1 116.9.4 14.2-10.5 46.5-64 119.5-22.2-26.3-41.7-50.3-58.6-72.2z" fill-rule="evenodd"/></svg>