<svg id="Capa_1" enable-background="new 0 0 512.002 512.002" height="512" viewBox="0 0 512.002 512.002" width="512" xmlns="http://www.w3.org/2000/svg"><g><g><path d="m7.502 235.288h496.81v213.484h-496.81z" fill="#fdb4ba"/><path d="m478.448 235.288h25.864v213.484h-25.864z" fill="#fe99a0"/><path d="m7.502 448.772h496.81v42.996h-496.81z" fill="#fd8087"/><path d="m478.448 448.772h25.864v42.996h-25.864z" fill="#fe646f"/><path d="m7.502 185.376h496.81v49.912h-496.81z" fill="#ffdfcf"/><path d="m478.448 185.376h25.864v49.912h-25.864z" fill="#ffcebf"/><path d="m504.312 152.284v33.092h-213.384l39.515-14.408c33.897-12.36 69.698-18.683 105.779-18.683h68.09z" fill="#ffeee6"/><path d="m478.448 152.284h25.864v33.092h-25.864z" fill="#ffdfcf"/><path d="m504.312 235.288v81.833l-69.024-13.075c-13.415-2.549-27.21-2.239-40.495.91l-66.904 15.824c-14.854 3.509-30.318 3.479-45.153-.1l-61.476-14.804c-15.504-3.739-31.698-3.599-47.132.4l-50.921 13.175c-16.854 4.368-34.567 4.128-51.3-.7l-64.405-18.564v-64.899z" fill="#ffcebf"/><g><path d="m478.448 235.288v76.933l25.864 4.9v-81.833z" fill="#ffb09e"/></g><g><path d="m109.608 185.376h-102.106v-39.985h102.105c19.433 0 38.668-5.017 55.625-14.506l22.817-12.771c24.653-13.797 43.216-36.135 52.268-62.897l9.632-28.477c1.714-5.066 7.21-7.784 12.276-6.071l19.53 6.606c5.066 1.714 7.784 7.21 6.071 12.276l-9.632 28.477c-12.23 36.157-37.308 66.336-70.616 84.977l-22.817 12.771c-22.91 12.822-48.897 19.6-75.153 19.6z" fill="#ffeee6"/></g><path d="m281.755 27.276-19.53-6.606c-4.616-1.561-9.578.563-11.722 4.783l5.389 1.823c5.066 1.714 7.784 7.21 6.071 12.276l-9.632 28.477c-12.23 36.157-37.308 66.336-70.616 84.977l-22.817 12.771c-22.91 12.821-48.897 19.599-75.153 19.599h25.864c26.256 0 52.243-6.778 75.153-19.599l22.817-12.771c33.308-18.641 58.386-48.82 70.616-84.977l9.632-28.477c1.712-5.066-1.006-10.563-6.072-12.276z" fill="#ffdfcf"/></g><g><path d="m288.218 178.389c-6.682 2.289-6.66 14.061 2.711 14.487h213.384c4.143 0 7.5-3.357 7.5-7.5s-3.357-7.5-7.5-7.5h-170.924c33.062-12.005 67.657-18.092 102.834-18.092h68.09c4.143 0 7.5-3.357 7.5-7.5s-3.357-7.5-7.5-7.5h-68.09c-37.068 0-73.522 6.438-108.349 19.137l-39.515 14.409c-.048.018-.093.041-.141.059z"/><path d="m504.312 227.788h-74.344c-4.143 0-7.5 3.357-7.5 7.5s3.357 7.5 7.5 7.5h74.344c4.143 0 7.5-3.357 7.5-7.5s-3.357-7.5-7.5-7.5z"/><path d="m7.502 242.788h386.666c4.143 0 7.5-3.357 7.5-7.5s-3.357-7.5-7.5-7.5h-386.666c-4.142 0-7.5 3.357-7.5 7.5s3.358 7.5 7.5 7.5z"/><path d="m5.425 307.394 64.403 18.562c18.009 5.197 37.119 5.456 55.258.754l50.923-13.175c14.198-3.679 29.238-3.807 43.495-.368l61.473 14.803c14.791 3.576 32.354 4.002 48.639.108l66.907-15.825c2.785-.66 5.582-1.178 8.386-1.569v37.276l-19.331 24.6c-2.559 3.257-1.993 7.972 1.264 10.531 1.374 1.079 3.007 1.603 4.629 1.603 2.222 0 4.422-.983 5.902-2.866l15.34-19.521 26.499 30.344c1.483 1.697 3.562 2.566 5.652 2.566 1.75 0 3.509-.609 4.931-1.851 3.119-2.725 3.44-7.463.716-10.583l-30.603-35.043v-37.869c4.665.146 9.332.66 13.983 1.544l69.024 13.074c4.065.767 7.994-1.902 8.765-5.974.771-4.069-1.903-7.993-5.974-8.765l-69.02-13.073c-14.54-2.764-29.219-2.435-43.621.979l-66.902 15.824c-13.648 3.224-28.057 3.191-41.673-.094l-61.474-14.803c-16.64-4.013-34.196-3.863-50.768.43l-50.925 13.176c-15.541 4.028-31.912 3.805-47.341-.646l-64.403-18.563c-3.981-1.143-8.136 1.149-9.284 5.13s1.15 8.136 5.13 9.284z"/><path d="m271.09 65.626c-11.635 34.396-35.492 63.104-67.175 80.835l-22.817 12.771c-21.795 12.197-46.516 18.645-71.49 18.645h-102.106c-4.142 0-7.5 3.357-7.5 7.5s3.358 7.5 7.5 7.5h102.105 145.49c4.142 0 7.5-3.357 7.5-7.5s-3.357-7.5-7.5-7.5h-77.598c3.704-1.716 7.353-3.556 10.924-5.555l22.817-12.771c34.93-19.549 61.231-51.198 74.059-89.119l9.631-28.477c2.703-7.453-1.266-18.802-10.771-21.784l-19.529-6.605c-7.452-2.705-18.803 1.266-21.785 10.771l-9.631 28.478c-8.456 24.999-25.795 45.865-48.826 58.755l-22.818 12.77c-15.841 8.865-33.809 13.551-51.962 13.551h-102.106c-4.142 0-7.5 3.357-7.5 7.5s3.358 7.5 7.5 7.5h102.105c20.712 0 41.213-5.347 59.288-15.461l22.817-12.771c26.277-14.707 46.062-38.515 55.709-67.038l9.632-28.478c.522-.34-.231-1.355 2.769-1.369l19.529 6.605c.34.521 1.356-.23 1.369 2.77z"/><path d="m504.502 484.268h-496.81c-4.142 0-7.5 3.357-7.5 7.5s3.358 7.5 7.5 7.5h496.81c4.143 0 7.5-3.357 7.5-7.5s-3.357-7.5-7.5-7.5z"/><path d="m.192 448.772c0 4.143 3.358 7.5 7.5 7.5h165.429c4.142 0 7.5-3.357 7.5-7.5s-3.358-7.5-7.5-7.5h-165.429c-4.142 0-7.5 3.357-7.5 7.5z"/><path d="m208.435 456.272h296.067c4.143 0 7.5-3.357 7.5-7.5s-3.357-7.5-7.5-7.5h-288.567v-33.386l21.127-56.08c1.46-3.877-.498-8.203-4.375-9.663-3.875-1.459-8.202.498-9.663 4.374l-18.013 47.812-31.941-24.946c-11.214-8.759-25.227-13.582-39.456-13.582h-7.803c-4.142 0-7.5 3.357-7.5 7.5s3.358 7.5 7.5 7.5h7.803c10.899 0 21.633 3.695 30.224 10.404l37.096 28.973v38.594c.001 4.142 3.358 7.5 7.501 7.5z"/><path d="m317.094 401.34c0-4.082-3.309-7.391-7.391-7.391s-7.391 3.309-7.391 7.391 3.309 7.392 7.391 7.392 7.391-3.31 7.391-7.392z"/><path d="m64.344 387.717c0-4.082-3.309-7.391-7.391-7.391s-7.391 3.309-7.391 7.391 3.309 7.392 7.391 7.392 7.391-3.31 7.391-7.392z"/></g></g></svg>